<svg width="123" height="27" viewBox="0 0 123 27" fill="none" xmlns="http://www.w3.org/2000/svg">
    <g clip-path="url(#clip0_309_564)">
        <mask id="mask0_309_564" style="mask-type:luminance" maskUnits="userSpaceOnUse" x="-30" y="-20" width="184" height="68">
            <path d="M153.65 -19.7463H-29.8672V47.1493H153.65V-19.7463Z" fill="white"/>
        </mask>
        <g mask="url(#mask0_309_564)">
            <mask id="mask1_309_564" style="mask-type:luminance" maskUnits="userSpaceOnUse" x="-42" y="-40" width="207" height="107">
                <path d="M164.653 -39.0896H-41.2637V66.4925H164.653V-39.0896Z" fill="white"/>
            </mask>
            <g mask="url(#mask1_309_564)">
                <path d="M46.8033 7.2391C45.8224 6.41963 44.4859 6.00246 42.8295 6.00246C41.1586 6.00246 39.8076 6.41963 38.8271 7.2391C37.8533 8.05108 37.3594 9.13128 37.3594 10.4424V16.1711C37.3594 17.5269 37.7445 18.6145 38.5072 19.3967C39.27 20.1789 40.3742 20.5813 41.798 20.5813C42.488 20.5813 43.2072 20.4695 43.6725 20.2981C44.1664 20.1119 44.6604 19.8363 45.1178 19.4936L45.3068 19.352V20.0225C45.3068 21.7358 44.9653 22.7787 44.2387 23.2929C43.193 24.0377 40.5994 24.0377 39.5388 24.0006C39.3502 24.0006 39.2991 24.1791 39.2991 24.2762V26.1908C39.2991 26.3097 39.4154 26.4515 39.5824 26.4664H41.2969C43.8465 26.4664 45.6699 25.9224 46.7015 24.8573C47.7405 23.7918 48.2635 22.25 48.2635 20.2832V10.4573C48.2706 9.13128 47.7766 8.05108 46.8033 7.2391ZM44.6313 17.7653C44.1735 18.2122 43.5707 18.4432 42.8295 18.4432C42.0888 18.4432 41.4785 18.2122 41.0136 17.7653C40.5487 17.3108 40.309 16.7149 40.309 15.9997V10.6137C40.309 9.86133 40.5342 9.28026 40.9991 8.83327C41.4785 8.37141 42.0959 8.1405 42.8225 8.1405C43.5561 8.1405 44.159 8.37141 44.6313 8.83327C45.0816 9.27281 45.2994 9.86133 45.2994 10.6137V15.9997C45.3139 16.7224 45.0816 17.3183 44.6313 17.7653Z" fill="#E8EEF5"/>
            </g>
            <mask id="mask2_309_564" style="mask-type:luminance" maskUnits="userSpaceOnUse" x="-42" y="-40" width="207" height="107">
                <path d="M164.653 -39.0896H-41.2637V66.4925H164.653V-39.0896Z" fill="white"/>
            </mask>
            <g mask="url(#mask2_309_564)">
                <path d="M33.6319 10.4422C33.6319 9.13112 33.1454 8.05091 32.179 7.2389C31.2057 6.41947 29.8546 6.00975 28.1617 6.00975C26.4912 6.00975 25.1397 6.42693 24.1593 7.2389C23.1348 8.09561 22.6845 9.21304 22.6699 10.9786V16.5508C22.6699 17.8396 23.1132 18.7559 24.1518 19.6051C25.1327 20.4022 26.4837 20.8118 28.1546 20.8118C29.7383 20.8118 31.0096 20.4693 31.9248 19.7914C32.7237 19.2028 33.2904 18.227 33.523 17.0574C33.5375 16.968 33.5301 16.9009 33.4865 16.8488C33.4287 16.7743 33.3269 16.752 33.2833 16.752L31.0021 16.7445C30.8205 16.7296 30.7117 16.8786 30.6606 17.0052C30.5081 17.3554 30.2759 17.8023 29.7819 18.1748C29.3386 18.5175 28.794 18.6888 28.1472 18.6888C27.4064 18.6888 26.7961 18.4579 26.3312 17.996C25.8664 17.5342 25.6266 16.9382 25.6266 16.2156V15.9846C25.6192 14.9417 25.6192 14.9417 25.6266 14.9268V14.7331H28.634C31.3947 14.7182 33.6319 12.7963 33.6319 10.4422ZM25.6337 13.0272L25.6412 10.6135C25.6412 9.8388 25.8809 9.16835 26.3167 8.73627C26.7816 8.27441 27.3919 8.04346 28.1326 8.04346C28.8954 8.04346 29.5131 8.27441 29.978 8.73627C30.4429 9.19813 30.7042 9.87603 30.7042 10.6135C30.7042 11.947 29.462 13.0272 27.9295 13.0272H25.6337Z" fill="#E8EEF5"/>
            </g>
            <mask id="mask3_309_564" style="mask-type:luminance" maskUnits="userSpaceOnUse" x="-42" y="-40" width="207" height="107">
                <path d="M164.653 -39.0896H-41.2637V66.4925H164.653V-39.0896Z" fill="white"/>
            </mask>
            <g mask="url(#mask3_309_564)">
                <path d="M92.0305 7.2391C91.0351 6.41963 89.6695 6.00246 87.977 6.00246C86.3061 6.00246 84.9551 6.41963 83.9597 7.2391C82.9717 8.05108 82.4707 9.13128 82.4707 10.4424V16.3722C82.4707 17.7057 82.9647 18.7858 83.9381 19.5904C84.9185 20.4024 86.277 20.8122 87.9696 20.8122C89.6625 20.8122 91.0281 20.4024 92.0231 19.5904C93.0114 18.7858 93.5124 17.7057 93.5124 16.3722V10.4424C93.5199 9.13128 93.0184 8.05853 92.0305 7.2391ZM90.5632 16.1711C90.5632 16.9086 90.316 17.5194 89.822 17.9664C89.3355 18.4134 88.7178 18.6443 87.977 18.6443C87.2359 18.6443 86.6256 18.4134 86.1462 17.9664C85.6667 17.512 85.427 16.9086 85.427 16.1711V10.6137C85.427 9.89111 85.6667 9.29518 86.1462 8.83327C86.6185 8.37141 87.2359 8.1405 87.977 8.1405C88.7178 8.1405 89.3355 8.37141 89.822 8.83327C90.3089 9.29518 90.5632 9.89111 90.5632 10.6137V16.1711Z" fill="#E8EEF5"/>
            </g>
            <mask id="mask4_309_564" style="mask-type:luminance" maskUnits="userSpaceOnUse" x="-42" y="-40" width="207" height="107">
                <path d="M164.653 -39.0896H-41.2637V66.4925H164.653V-39.0896Z" fill="white"/>
            </mask>
            <g mask="url(#mask4_309_564)">
                <path d="M121.889 14.763C121.445 14.2043 120.93 13.7648 120.349 13.4594C119.76 13.154 119.005 12.8187 118.096 12.4761C117.283 12.178 116.68 11.9397 116.295 11.7758C115.91 11.6119 115.568 11.3809 115.293 11.1053C115.002 10.8148 114.856 10.4498 114.856 10.0103C114.856 9.45898 115.074 8.98221 115.496 8.60228C115.917 8.22234 116.491 8.02867 117.203 8.02867C117.893 8.02867 118.467 8.22234 118.91 8.60228C119.324 8.95984 119.542 9.40684 119.586 10.0028C119.6 10.2114 119.731 10.3753 119.891 10.3753H121.947C122.077 10.3678 122.172 10.3306 122.23 10.2561C122.31 10.1593 122.331 9.9879 122.295 9.71971C122.157 8.62464 121.722 7.79776 120.944 7.18687C120.029 6.46428 118.743 6.0918 117.138 6.0918C115.576 6.0918 114.319 6.44937 113.396 7.15709C112.488 7.8499 112.031 8.84068 112.031 10.0922C112.031 10.9414 112.241 11.6491 112.67 12.193C113.106 12.7517 113.6 13.1837 114.145 13.4743C114.704 13.7797 115.423 14.0926 116.273 14.4129C117.05 14.6886 117.653 14.9195 118.06 15.0908C118.46 15.2622 118.816 15.4931 119.113 15.7911C119.426 16.104 119.586 16.4839 119.586 16.9383C119.586 17.5045 119.361 17.9812 118.924 18.3537C118.496 18.7113 117.922 18.8975 117.232 18.8975C116.52 18.8975 115.917 18.7113 115.43 18.3463C114.929 17.9663 114.791 17.4747 114.689 16.9681C114.631 16.7074 114.566 16.5882 114.297 16.5807H112.22C111.907 16.6254 111.893 16.9607 111.893 17.0054C111.893 18.16 112.35 19.0465 113.287 19.7244C114.224 20.4023 115.532 20.7525 117.167 20.7525C118.816 20.7525 120.145 20.3949 121.104 19.6872C122.056 18.9869 122.535 18.0334 122.535 16.834C122.542 16.0071 122.317 15.3069 121.889 14.763Z" fill="#E8EEF5"/>
            </g>
            <mask id="mask5_309_564" style="mask-type:luminance" maskUnits="userSpaceOnUse" x="-42" y="-40" width="207" height="107">
                <path d="M164.653 -39.0896H-41.2637V66.4925H164.653V-39.0896Z" fill="white"/>
            </mask>
            <g mask="url(#mask5_309_564)">
                <path d="M77.0962 7.2391C76.1154 6.41963 74.7718 6.00246 73.0934 6.00246C71.4445 6.00246 70.108 6.41963 69.1201 7.2391C68.1463 8.05108 67.6523 9.13128 67.6523 10.4424V25.7882C67.6523 25.9152 67.7616 26.0566 67.9141 26.0566H70.3477C70.5002 26.0566 70.6091 25.9152 70.6091 25.7882V19.65L70.8052 19.8064C71.1176 20.0672 71.6697 20.3503 72.113 20.4918C72.6796 20.6707 73.4785 20.8045 73.958 20.8045C75.3601 20.8045 76.4934 20.4024 77.3214 19.6202C78.1423 18.838 78.5636 17.7429 78.5636 16.3722V10.4424C78.5711 9.13128 78.0771 8.05853 77.0962 7.2391ZM75.6434 16.2009C75.6434 16.9235 75.4037 17.5195 74.9243 17.9813C74.4519 18.4432 73.8346 18.6741 73.0934 18.6741C72.3743 18.6741 71.7785 18.4432 71.3137 17.9813C70.8488 17.5195 70.6091 16.9235 70.6091 16.2009V10.6137C70.6091 9.86133 70.8272 9.27281 71.2846 8.83327C71.7569 8.37141 72.3597 8.1405 73.0934 8.1405C73.82 8.1405 74.4374 8.37141 74.9168 8.83327C75.4037 9.29518 75.6434 9.89856 75.6434 10.6137V16.2009Z" fill="#E8EEF5"/>
            </g>
            <mask id="mask6_309_564" style="mask-type:luminance" maskUnits="userSpaceOnUse" x="-42" y="-40" width="207" height="107">
                <path d="M164.653 -39.0896H-41.2637V66.4925H164.653V-39.0896Z" fill="white"/>
            </mask>
            <g mask="url(#mask6_309_564)">
                <path d="M14.8686 6.04719C14.6143 6.02486 14.3675 6.00996 13.975 6.00996C13.9388 6.00996 13.8736 6.00996 13.7863 6.00996C13.6409 6.01741 10.6406 6.0025 9.6456 8.55025L9.53675 8.83335L9.42762 8.55025C8.41784 5.95781 5.32323 6.0025 5.28688 6.00996C5.19245 6.00996 5.12706 6.00996 5.09802 6.00996C4.69121 6.00996 4.4515 6.02486 4.19725 6.04719C3.02765 6.15894 2.14142 6.54633 1.41497 7.26892C0.688527 7.99151 0.339844 9.12386 0.339844 10.7479V20.3578C0.339844 20.5291 0.485125 20.5962 0.615867 20.5962H2.96953C3.0785 20.5962 3.25286 20.5587 3.26013 20.3428V10.9416C3.26013 10.0699 3.4708 9.38459 3.88488 8.90036C4.30618 8.40872 4.87281 8.15541 5.57021 8.15541C6.31116 8.15541 6.91413 8.40872 7.35725 8.90036C7.80036 9.39205 8.02557 10.07 8.02557 10.9192V20.3652C8.03284 20.5067 8.11274 20.5885 8.23625 20.5885H10.8296C10.8803 20.5885 10.9239 20.5663 10.9605 20.5216C11.0186 20.462 11.0477 20.3801 11.0403 20.2832V10.9117C11.0403 10.0625 11.2654 9.38459 11.7012 8.89291C12.1445 8.40127 12.7473 8.14795 13.4885 8.14795C14.186 8.14795 14.7523 8.40127 15.1739 8.89291C15.5952 9.38459 15.8058 10.0699 15.8058 10.9341V20.3578C15.8058 20.4248 15.8204 20.4844 15.864 20.5291C15.9076 20.5736 15.9583 20.5962 16.0164 20.5962H18.5154C18.6387 20.5962 18.726 20.4993 18.726 20.3578V10.7479C18.726 9.12386 18.37 7.9841 17.6508 7.26892C16.9246 6.54633 16.0381 6.15894 14.8686 6.04719Z" fill="#E8EEF5"/>
            </g>
            <mask id="mask7_309_564" style="mask-type:luminance" maskUnits="userSpaceOnUse" x="-42" y="-40" width="207" height="107">
                <path d="M164.653 -39.0896H-41.2637V66.4925H164.653V-39.0896Z" fill="white"/>
            </mask>
            <g mask="url(#mask7_309_564)">
                <path d="M9.46395 23.1587C8.9626 23.1587 8.54126 23.3151 8.22161 23.6206C7.90201 23.926 7.74219 24.3137 7.74219 24.7904C7.74219 25.2672 7.90201 25.6544 8.22161 25.9599C8.54126 26.2654 8.9626 26.4217 9.46395 26.4217C9.987 26.4217 10.4083 26.2726 10.7207 25.9748C11.0331 25.6843 11.1856 25.2821 11.1856 24.7904C11.1856 24.3137 11.0256 23.926 10.7061 23.6206C10.3863 23.3151 9.96499 23.1587 9.46395 23.1587Z" fill="#E8EEF5"/>
            </g>
            <mask id="mask8_309_564" style="mask-type:luminance" maskUnits="userSpaceOnUse" x="-42" y="-40" width="207" height="107">
                <path d="M164.653 -39.0896H-41.2637V66.4925H164.653V-39.0896Z" fill="white"/>
            </mask>
            <g mask="url(#mask8_309_564)">
                <path d="M61.8179 7.21657C60.8375 6.41947 59.486 6.00975 57.8155 6.00975C56.2318 6.00975 54.9606 6.35241 54.0379 7.03031C53.2386 7.61883 52.6723 8.59474 52.4397 9.76433C52.4251 9.85371 52.4322 9.92076 52.4758 9.98032C52.534 10.0548 52.6358 10.0772 52.6794 10.0772L54.9606 10.0846C55.1421 10.107 55.251 9.95054 55.3017 9.82389C55.5268 9.30988 55.7956 8.94486 56.1808 8.65434C56.624 8.31165 57.1762 8.14029 57.8155 8.14029C58.5563 8.14029 59.1666 8.37124 59.6314 8.83311C60.0963 9.29497 60.336 9.89094 60.336 10.6135V10.8445C60.3435 11.88 60.3435 11.8874 60.336 11.9023V12.096H57.3286C54.5755 12.096 52.3379 14.0105 52.3379 16.372C52.3379 17.6831 52.8248 18.7633 53.7907 19.5753C54.7641 20.3948 56.1155 20.8118 57.8081 20.8118C59.479 20.8118 60.8229 20.3948 61.8109 19.5753C62.8349 18.7187 63.2853 17.6012 63.2998 15.8357V10.1815C63.2998 8.95976 62.8424 8.05091 61.8179 7.21657ZM60.329 16.2007C60.329 16.9829 60.0892 17.6459 59.653 18.078C59.1882 18.5398 58.5783 18.7708 57.8371 18.7708C57.0744 18.7708 56.457 18.5398 55.9921 18.078C55.5269 17.6235 55.2655 16.9382 55.2655 16.2007C55.2655 14.8747 56.5152 13.787 58.0478 13.787H60.3435L60.329 16.2007Z" fill="#E8EEF5"/>
            </g>
            <mask id="mask9_309_564" style="mask-type:luminance" maskUnits="userSpaceOnUse" x="-42" y="-40" width="207" height="107">
                <path d="M164.653 -39.0896H-41.2637V66.4925H164.653V-39.0896Z" fill="white"/>
            </mask>
            <g mask="url(#mask9_309_564)">
                <path d="M100.225 0.758133H97.8128C97.6745 0.758133 97.5586 0.877336 97.5586 1.01886V20.2982C97.5586 20.4398 97.6745 20.5591 97.8128 20.5591H100.225C100.362 20.5591 100.479 20.4473 100.479 20.2982V1.01886C100.472 0.877336 100.362 0.758133 100.225 0.758133Z" fill="#E8EEF5"/>
            </g>
            <mask id="mask10_309_564" style="mask-type:luminance" maskUnits="userSpaceOnUse" x="-42" y="-40" width="207" height="107">
                <path d="M164.653 -39.0896H-41.2637V66.4925H164.653V-39.0896Z" fill="white"/>
            </mask>
            <g mask="url(#mask10_309_564)">
                <path d="M107.773 6.2258H105.281C105.165 6.2258 105.07 6.32263 105.07 6.44183V20.3352C105.07 20.4544 105.165 20.5512 105.281 20.5512H107.773C107.889 20.5512 107.983 20.4544 107.983 20.3352V6.44183C107.983 6.32263 107.889 6.2258 107.773 6.2258Z" fill="#E8EEF5"/>
            </g>
            <mask id="mask11_309_564" style="mask-type:luminance" maskUnits="userSpaceOnUse" x="-42" y="-40" width="207" height="107">
                <path d="M164.653 -39.0896H-41.2637V66.4925H164.653V-39.0896Z" fill="white"/>
            </mask>
            <g mask="url(#mask11_309_564)">
                <path d="M106.53 0.355553C106.029 0.355553 105.608 0.511991 105.288 0.817413C104.961 1.12288 104.809 1.51022 104.809 1.987C104.809 2.46377 104.968 2.85116 105.288 3.15658C105.608 3.462 106.029 3.61844 106.53 3.61844C107.053 3.61844 107.475 3.46946 107.787 3.17149C108.099 2.88094 108.252 2.47868 108.252 1.987C108.252 1.51022 108.092 1.12288 107.772 0.817413C107.453 0.511991 107.031 0.355553 106.53 0.355553Z" fill="#E8EEF5"/>
            </g>
        </g>
    </g>
    <defs>
        <clipPath id="clip0_309_564">
            <rect width="123" height="27" fill="white"/>
        </clipPath>
    </defs>
</svg>
