<svg width="1400" height="303" viewBox="0 0 1400 303" fill="none" xmlns="http://www.w3.org/2000/svg">
    <g clip-path="url(#clip0_74_1001)">
        <mask id="mask0_74_1001" style="mask-type:luminance" maskUnits="userSpaceOnUse" x="-340" y="-222" width="2089" height="752">
            <path d="M1748.88 -221.597H-339.937V529.12H1748.88V-221.597Z" fill="white"/>
        </mask>
        <g mask="url(#mask0_74_1001)">
            <mask id="mask1_74_1001" style="mask-type:luminance" maskUnits="userSpaceOnUse" x="-470" y="-439" width="2345" height="1186">
                <path d="M1874.12 -438.671H-469.649V746.195H1874.12V-438.671Z" fill="white"/>
            </mask>
            <g mask="url(#mask1_74_1001)">
                <path d="M532.733 81.2397C521.568 72.0434 506.356 67.3618 487.503 67.3618C468.485 67.3618 453.107 72.0434 441.947 81.2397C430.864 90.3518 425.241 102.474 425.241 117.188V181.476C425.241 196.691 429.625 208.897 438.306 217.675C446.988 226.453 459.557 230.968 475.762 230.968C483.616 230.968 491.802 229.714 497.097 227.791C502.72 225.701 508.342 222.608 513.549 218.762L515.7 217.174V224.698C515.7 243.925 511.813 255.629 503.543 261.399C491.641 269.757 462.12 269.757 450.048 269.341C447.901 269.341 447.319 271.344 447.319 272.434V293.92C447.319 295.254 448.643 296.846 450.544 297.013H470.059C499.079 297.013 519.833 290.908 531.574 278.955C543.4 266.998 549.354 249.695 549.354 227.623V117.355C549.434 102.474 543.812 90.3518 532.733 81.2397ZM508.011 199.367C502.8 204.382 495.939 206.974 487.503 206.974C479.072 206.974 472.126 204.382 466.834 199.367C461.543 194.267 458.814 187.579 458.814 179.553V119.111C458.814 110.667 461.377 104.146 466.669 99.1298C472.126 93.9467 479.152 91.3553 487.423 91.3553C495.773 91.3553 502.635 93.9467 508.011 99.1298C513.137 104.062 515.615 110.667 515.615 119.111V179.553C515.78 187.663 513.137 194.35 508.011 199.367Z" fill="#D9D9D9"/>
            </g>
            <mask id="mask2_74_1001" style="mask-type:luminance" maskUnits="userSpaceOnUse" x="-470" y="-439" width="2345" height="1186">
                <path d="M1874.12 -438.671H-469.649V746.195H1874.12V-438.671Z" fill="white"/>
            </mask>
            <g mask="url(#mask2_74_1001)">
                <path d="M382.825 117.186C382.825 102.472 377.287 90.3497 366.289 81.2371C355.209 72.0413 339.832 67.4434 320.563 67.4434C301.549 67.4434 286.166 72.1249 275.007 81.2371C263.346 90.8513 258.22 103.391 258.055 123.204V185.738C258.055 200.2 263.1 210.483 274.922 220.014C286.086 228.959 301.464 233.555 320.482 233.555C338.508 233.555 352.977 229.711 363.395 222.104C372.488 215.499 378.938 204.548 381.586 191.422C381.751 190.419 381.666 189.667 381.17 189.082C380.512 188.245 379.354 187.995 378.857 187.995L352.892 187.911C350.826 187.744 349.587 189.416 349.005 190.837C347.27 194.766 344.627 199.782 339.004 203.963C333.959 207.808 327.759 209.731 320.397 209.731C311.966 209.731 305.02 207.139 299.728 201.956C294.437 196.773 291.708 190.085 291.708 181.976V179.384C291.623 167.68 291.623 167.68 291.708 167.513V165.339H325.939C357.361 165.172 382.825 143.603 382.825 117.186ZM291.789 146.195L291.874 119.108C291.874 110.414 294.602 102.89 299.563 98.0409C304.854 92.8578 311.8 90.266 320.232 90.266C328.913 90.266 335.945 92.8578 341.236 98.0409C346.528 103.224 349.502 110.832 349.502 119.108C349.502 134.073 335.363 146.195 317.919 146.195H291.789Z" fill="#D9D9D9"/>
            </g>
            <mask id="mask3_74_1001" style="mask-type:luminance" maskUnits="userSpaceOnUse" x="-470" y="-439" width="2345" height="1186">
                <path d="M1874.12 -438.671H-469.649V746.195H1874.12V-438.671Z" fill="white"/>
            </mask>
            <g mask="url(#mask3_74_1001)">
                <path d="M1047.53 81.2397C1036.2 72.0434 1020.65 67.3618 1001.39 67.3618C982.37 67.3618 966.992 72.0434 955.662 81.2397C944.418 90.3518 938.715 102.474 938.715 117.188V183.733C938.715 198.698 944.337 210.82 955.416 219.849C966.576 228.961 982.039 233.56 1001.3 233.56C1020.57 233.56 1036.12 228.961 1047.44 219.849C1058.69 210.82 1064.39 198.698 1064.39 183.733V117.188C1064.48 102.474 1058.77 90.4355 1047.53 81.2397ZM1030.82 181.476C1030.82 189.753 1028.01 196.608 1022.39 201.624C1016.85 206.64 1009.82 209.231 1001.39 209.231C992.953 209.231 986.006 206.64 980.549 201.624C975.092 196.524 972.364 189.753 972.364 181.476V119.111C972.364 111.001 975.092 104.313 980.549 99.1298C985.926 93.9467 992.953 91.3553 1001.39 91.3553C1009.82 91.3553 1016.85 93.9467 1022.39 99.1298C1027.93 104.313 1030.82 111.001 1030.82 119.111V181.476Z" fill="#D9D9D9"/>
            </g>
            <mask id="mask4_74_1001" style="mask-type:luminance" maskUnits="userSpaceOnUse" x="-470" y="-439" width="2345" height="1186">
                <path d="M1874.12 -438.671H-469.649V746.195H1874.12V-438.671Z" fill="white"/>
            </mask>
            <g mask="url(#mask4_74_1001)">
                <path d="M1387.36 165.675C1382.31 159.405 1376.45 154.472 1369.83 151.045C1363.13 147.617 1354.53 143.855 1344.2 140.01C1334.94 136.665 1328.07 133.99 1323.69 132.151C1319.31 130.312 1315.42 127.72 1312.28 124.627C1308.97 121.367 1307.32 117.27 1307.32 112.338C1307.32 106.152 1309.8 100.801 1314.59 96.5374C1319.39 92.2737 1325.92 90.1002 1334.02 90.1002C1341.88 90.1002 1348.41 92.2737 1353.46 96.5374C1358.17 100.55 1360.65 105.566 1361.15 112.254C1361.31 114.595 1362.8 116.435 1364.62 116.435H1388.02C1389.51 116.351 1390.58 115.933 1391.25 115.097C1392.15 114.01 1392.4 112.087 1391.99 109.078C1390.42 96.7884 1385.46 87.5089 1376.61 80.6534C1366.19 72.5443 1351.55 68.3643 1333.28 68.3643C1315.51 68.3643 1301.2 72.377 1290.7 80.3192C1280.36 88.0941 1275.15 99.2128 1275.15 113.258C1275.15 122.788 1277.55 130.73 1282.43 136.833C1287.39 143.103 1293.01 147.952 1299.22 151.212C1305.58 154.64 1313.77 158.151 1323.44 161.746C1332.29 164.839 1339.15 167.43 1343.78 169.353C1348.33 171.276 1352.38 173.868 1355.77 177.212C1359.33 180.723 1361.15 184.987 1361.15 190.086C1361.15 196.44 1358.58 201.79 1353.62 205.97C1348.74 209.983 1342.21 212.073 1334.36 212.073C1326.26 212.073 1319.39 209.983 1313.85 205.886C1308.14 201.623 1306.57 196.105 1305.42 190.42C1304.75 187.494 1304.01 186.157 1300.95 186.073H1277.3C1273.75 186.575 1273.58 190.337 1273.58 190.839C1273.58 203.797 1278.79 213.745 1289.46 221.353C1300.12 228.96 1315.01 232.89 1333.61 232.89C1352.38 232.89 1367.51 228.876 1378.43 220.935C1389.26 213.076 1394.72 202.375 1394.72 188.916C1394.8 179.636 1392.23 171.778 1387.36 165.675Z" fill="#D9D9D9"/>
            </g>
            <mask id="mask5_74_1001" style="mask-type:luminance" maskUnits="userSpaceOnUse" x="-470" y="-439" width="2345" height="1186">
                <path d="M1874.12 -438.671H-469.649V746.195H1874.12V-438.671Z" fill="white"/>
            </mask>
            <g mask="url(#mask5_74_1001)">
                <path d="M877.527 81.2397C866.362 72.0434 851.07 67.3618 831.966 67.3618C813.198 67.3618 797.986 72.0434 786.741 81.2397C775.658 90.3518 770.035 102.474 770.035 117.188V289.402C770.035 290.827 771.279 292.414 773.014 292.414H800.714C802.45 292.414 803.689 290.827 803.689 289.402V220.517L805.921 222.273C809.477 225.199 815.761 228.376 820.806 229.964C827.256 231.972 836.35 233.474 841.806 233.474C857.766 233.474 870.665 228.961 880.089 220.183C889.433 211.405 894.228 199.116 894.228 183.733V117.188C894.313 102.474 888.691 90.4355 877.527 81.2397ZM860.99 181.811C860.99 189.92 858.262 196.608 852.805 201.791C847.429 206.974 840.402 209.566 831.966 209.566C823.781 209.566 817 206.974 811.709 201.791C806.417 196.608 803.689 189.92 803.689 181.811V119.111C803.689 110.667 806.171 104.062 811.378 99.1298C816.754 93.9467 823.615 91.3553 831.966 91.3553C840.236 91.3553 847.263 93.9467 852.72 99.1298C858.262 104.313 860.99 111.085 860.99 119.111V181.811Z" fill="#D9D9D9"/>
            </g>
            <mask id="mask6_74_1001" style="mask-type:luminance" maskUnits="userSpaceOnUse" x="-470" y="-439" width="2345" height="1186">
                <path d="M1874.12 -438.671H-469.649V746.195H1874.12V-438.671Z" fill="white"/>
            </mask>
            <g mask="url(#mask6_74_1001)">
                <path d="M169.251 67.8634C166.358 67.6129 163.549 67.4456 159.08 67.4456C158.669 67.4456 157.926 67.4456 156.933 67.4456C155.278 67.5292 121.128 67.3619 109.803 95.9533L108.564 99.1303L107.322 95.9533C95.8285 66.8604 60.6052 67.3619 60.1915 67.4456C59.1167 67.4456 58.3724 67.4456 58.0419 67.4456C53.4116 67.4456 50.6832 67.6129 47.7892 67.8634C34.4767 69.1175 24.3895 73.4648 16.121 81.5739C7.85255 89.683 3.88379 102.391 3.88379 120.615V228.46C3.88379 230.382 5.5374 231.135 7.02552 231.135H33.8152C35.0555 231.135 37.0401 230.715 37.1228 228.292V122.789C37.1228 113.008 39.5207 105.316 44.2338 99.8824C49.0291 94.3651 55.4785 91.5223 63.4164 91.5223C71.85 91.5223 78.7131 94.3651 83.7567 99.8824C88.8003 105.4 91.3636 113.008 91.3636 122.538V228.543C91.4464 230.132 92.3557 231.049 93.7616 231.049H123.28C123.857 231.049 124.353 230.801 124.769 230.299C125.431 229.63 125.762 228.71 125.677 227.624V122.455C125.677 112.924 128.24 105.316 133.2 99.7987C138.246 94.2814 145.107 91.4386 153.543 91.4386C161.482 91.4386 167.928 94.2814 172.727 99.7987C177.522 105.316 179.919 113.008 179.919 122.706V228.46C179.919 229.212 180.085 229.881 180.581 230.382C181.078 230.882 181.655 231.135 182.317 231.135H210.76C212.164 231.135 213.157 230.048 213.157 228.46V120.615C213.157 102.391 209.105 89.5998 200.919 81.5739C192.653 73.4648 182.563 69.1175 169.251 67.8634Z" fill="#D9D9D9"/>
            </g>
            <mask id="mask7_74_1001" style="mask-type:luminance" maskUnits="userSpaceOnUse" x="-470" y="-439" width="2345" height="1186">
                <path d="M1874.12 -438.671H-469.649V746.195H1874.12V-438.671Z" fill="white"/>
            </mask>
            <g mask="url(#mask7_74_1001)">
                <path d="M107.736 259.894C102.03 259.894 97.2338 261.648 93.5955 265.076C89.9578 268.504 88.1387 272.855 88.1387 278.205C88.1387 283.555 89.9578 287.901 93.5955 291.329C97.2338 294.757 102.03 296.511 107.736 296.511C113.689 296.511 118.484 294.838 122.04 291.496C125.596 288.235 127.332 283.722 127.332 278.205C127.332 272.855 125.511 268.504 121.875 265.076C118.234 261.648 113.439 259.894 107.736 259.894Z" fill="#D9D9D9"/>
            </g>
            <mask id="mask8_74_1001" style="mask-type:luminance" maskUnits="userSpaceOnUse" x="-470" y="-439" width="2345" height="1186">
                <path d="M1874.12 -438.671H-469.649V746.195H1874.12V-438.671Z" fill="white"/>
            </mask>
            <g mask="url(#mask8_74_1001)">
                <path d="M703.64 80.9865C692.48 72.0413 677.098 67.4434 658.084 67.4434C640.059 67.4434 625.589 71.2888 615.087 78.8963C605.989 85.5008 599.544 96.4527 596.896 109.578C596.73 110.581 596.811 111.334 597.307 112.002C597.969 112.838 599.128 113.089 599.624 113.089L625.589 113.172C627.655 113.423 628.894 111.668 629.471 110.246C632.034 104.478 635.094 100.382 639.477 97.1215C644.523 93.2757 650.807 91.3528 658.084 91.3528C666.516 91.3528 673.462 93.9445 678.753 99.1276C684.045 104.311 686.773 110.999 686.773 119.108V121.7C686.858 133.32 686.858 133.404 686.773 133.571V135.745H652.542C621.206 135.745 595.737 157.23 595.737 183.731C595.737 198.445 601.279 210.567 612.273 219.679C623.353 228.875 638.735 233.555 657.999 233.555C677.018 233.555 692.315 228.875 703.56 219.679C715.216 210.065 720.342 197.525 720.507 177.712V114.26C720.507 100.549 715.301 90.3497 703.64 80.9865ZM686.693 181.808C686.693 190.586 683.964 198.027 678.999 202.876C673.708 208.059 666.766 210.65 658.33 210.65C649.649 210.65 642.622 208.059 637.33 202.876C632.034 197.776 629.06 190.085 629.06 181.808C629.06 166.928 643.284 154.722 660.728 154.722H686.858L686.693 181.808Z" fill="#D9D9D9"/>
            </g>
            <mask id="mask9_74_1001" style="mask-type:luminance" maskUnits="userSpaceOnUse" x="-470" y="-439" width="2345" height="1186">
                <path d="M1874.12 -438.671H-469.649V746.195H1874.12V-438.671Z" fill="white"/>
            </mask>
            <g mask="url(#mask9_74_1001)">
                <path d="M1140.79 8.50879H1113.34C1111.77 8.50879 1110.45 9.84651 1110.45 11.4348V227.792C1110.45 229.381 1111.77 230.719 1113.34 230.719H1140.79C1142.36 230.719 1143.69 229.465 1143.69 227.792V11.4348C1143.61 9.84651 1142.36 8.50879 1140.79 8.50879Z" fill="#D9D9D9"/>
            </g>
            <mask id="mask10_74_1001" style="mask-type:luminance" maskUnits="userSpaceOnUse" x="-470" y="-439" width="2345" height="1186">
                <path d="M1874.12 -438.671H-469.649V746.195H1874.12V-438.671Z" fill="white"/>
            </mask>
            <g mask="url(#mask10_74_1001)">
                <path d="M1226.7 69.8682H1198.34C1197.02 69.8682 1195.94 70.9549 1195.94 72.2926V228.207C1195.94 229.545 1197.02 230.631 1198.34 230.631H1226.7C1228.03 230.631 1229.1 229.545 1229.1 228.207V72.2926C1229.1 70.9549 1228.03 69.8682 1226.7 69.8682Z" fill="#D9D9D9"/>
            </g>
            <mask id="mask11_74_1001" style="mask-type:luminance" maskUnits="userSpaceOnUse" x="-470" y="-439" width="2345" height="1186">
                <path d="M1874.12 -438.671H-469.649V746.195H1874.12V-438.671Z" fill="white"/>
            </mask>
            <g mask="url(#mask11_74_1001)">
                <path d="M1212.56 3.99072C1206.86 3.99072 1202.06 5.74631 1198.43 9.17383C1194.7 12.6018 1192.97 16.9487 1192.97 22.2991C1192.97 27.6496 1194.78 31.997 1198.43 35.4245C1202.06 38.852 1206.86 40.6076 1212.56 40.6076C1218.52 40.6076 1223.31 38.9357 1226.87 35.5918C1230.42 32.3312 1232.16 27.8169 1232.16 22.2991C1232.16 16.9487 1230.34 12.6018 1226.7 9.17383C1223.06 5.74631 1218.27 3.99072 1212.56 3.99072Z" fill="#D9D9D9"/>
            </g>
        </g>
    </g>
    <defs>
        <clipPath id="clip0_74_1001">
            <rect width="1400" height="303" fill="white"/>
        </clipPath>
    </defs>
</svg>
